/vscmnt/brussel_pixiu_data/_data_brussel/112/vsc11236/PredSimResults/SUBJ06mtu3D/worker1.mot
version=1
nRows=6
nColumns=50
inDegrees=yes
endheader
                time	         pelvis_tilt	         pelvis_list	     pelvis_rotation	           pelvis_tx	           pelvis_ty	           pelvis_tz	       hip_flexion_r	     hip_adduction_r	      hip_rotation_r	        knee_angle_r	       ankle_angle_r	         mtp_angle_r	       hip_flexion_l	     hip_adduction_l	      hip_rotation_l	        knee_angle_l	       ankle_angle_l	         mtp_angle_l	    lumbar_extension	      lumbar_bending	     lumbar_rotation	 ercspn_r/activation	 intobl_r/activation	 extobl_r/activation	    abd_r/activation	    add_r/activation	hamstrings_r/activation	bifemsh_r/activation	glut_max_r/activation	iliopsoas_r/activation	rect_fem_r/activation	  vasti_r/activation	gastroc_r/activation	 soleus_r/activation	tib_ant_r/activation	 ercspn_l/activation	 intobl_l/activation	 extobl_l/activation	    abd_l/activation	    add_l/activation	hamstrings_l/activation	bifemsh_l/activation	glut_max_l/activation	iliopsoas_l/activation	rect_fem_l/activation	  vasti_l/activation	gastroc_l/activation	 soleus_l/activation	tib_ant_l/activation	
          0.00000000	         -5.58018746	         -1.22011069	          7.37104960	          0.00000000	          0.93089090	         -0.01353780	         30.48170783	         -1.25606881	         -3.78082908	         -4.67371632	          3.02385735	          0.22284013	        -12.00155885	         -0.80629858	          3.40171713	         -8.20977406	          9.30228316	         30.51933938	         -6.61672178	         -1.14496745	          2.39297805	          0.13617304	          0.17993087	          0.01000262	          0.01000333	          0.10827230	          0.13974222	          0.26107862	          0.01383657	          0.16022801	          0.01000409	          0.01000104	          0.02894897	          0.01000120	          0.42488853	          0.07040370	          0.01000106	          0.01000161	          0.05624773	          0.01002827	          0.02042090	          0.14634346	          0.04914268	          0.40174965	          0.01001536	          0.01000447	          0.39767494	          0.33083700	          0.01854484	
          0.01268056	         -5.65163664	         -1.15781474	          7.40082187	          0.01729878	          0.92888288	         -0.01279559	         30.55113142	         -1.10781810	         -3.53009733	         -6.37295940	          2.59126705	          0.20811796	        -12.43607245	         -0.85574785	          2.96367806	         -9.19352240	          8.48109337	         32.45868721	         -6.29709472	         -0.90467490	          2.05622614	          0.11482276	          0.15567744	          0.01000174	          0.01000051	          0.13948390	          0.12720549	          0.21553250	          0.07057924	          0.13227324	          0.01000868	          0.01000125	          0.02624627	          0.01815123	          0.43381572	          0.10356177	          0.01000107	          0.01000160	          0.04643430	          0.05539743	          0.01705856	          0.12081182	          0.04056922	          0.42138818	          0.01015642	          0.01542843	          0.36998359	          0.30980269	          0.01530937	
          0.02536112	         -5.70760582	         -1.09954882	          7.38223020	          0.03490956	          0.92716110	         -0.01195717	         30.45105652	         -0.97454951	         -3.25876861	         -7.98220945	          2.20043915	          0.19672157	        -12.71986221	         -0.90464951	          2.49817122	        -10.48712545	          7.49893364	         34.46037755	         -5.96740504	         -0.64908672	          1.71347052	          0.11655777	          0.12852104	          0.01000174	          0.05925748	          0.12229709	          0.11603374	          0.17793903	          0.10226966	          0.10919570	          0.01000137	          0.01000046	          0.02166729	          0.01498455	          0.51479983	          0.09244358	          0.01000082	          0.01000197	          0.03833299	          0.04573527	          0.01745840	          0.09973463	          0.03349135	          0.43163931	          0.01002376	          0.02607971	          0.33812751	          0.28544351	          0.01263840	
          0.03804167	         -5.74992613	         -1.03105468	          7.31370526	          0.05258133	          0.92591194	         -0.01100965	         30.24584629	         -0.83924932	         -3.04535156	         -9.39092572	          1.62770116	          0.17105870	        -12.77332215	         -0.93618192	          2.00523102	        -12.19046591	          6.31184410	         36.50259544	         -5.65810338	         -0.39527107	          1.37441030	          0.13050901	          0.10609873	          0.01000154	          0.11661013	          0.18081213	          0.10258376	          0.14689622	          0.14148667	          0.09014448	          0.01000167	          0.01000055	          0.01788727	          0.01237047	          0.55338874	          0.12543543	          0.01000098	          0.01000161	          0.03164510	          0.07698761	          0.03124038	          0.08233478	          0.02764826	          0.43535484	          0.01463975	          0.02153075	          0.28618439	          0.23866530	          0.01043348	
          0.05072223	         -5.77669029	         -0.95733410	          7.20083040	          0.07012444	          0.92525336	         -0.00997206	         30.00817833	         -0.69578051	         -2.87290756	        -10.79966735	          1.28802078	          0.13571081	        -12.50280373	         -0.95530823	          1.48028952	        -14.45175606	          4.94030114	         38.46840783	         -5.38608366	         -0.13633562	          1.04241977	          0.14019702	          0.08758822	          0.01000130	          0.16671508	          0.22077806	          0.09186143	          0.12126854	          0.18656567	          0.07441710	          0.01000253	          0.01002865	          0.01476699	          0.01210792	          0.56388572	          0.16198415	          0.01000107	          0.01000153	          0.02612402	          0.12395568	          0.02699867	          0.06797094	          0.02282456	          0.42364409	          0.01209784	          0.01777451	          0.23625415	          0.19702574	          0.01000026	
          0.06340279	         -5.78723553	         -0.88484121	          7.04618540	          0.08736018	          0.92527962	         -0.00886913	         29.76920819	         -0.54252029	         -2.72684196	        -12.25531262	          1.25787756	          0.10866397	        -11.83166747	         -0.97187157	          0.91157830	        -17.37776321	          3.39755197	         40.14410997	         -5.16339886	          0.13567984	          0.72170291	          0.14166229	          0.07230719	          0.01000119	          0.19377791	          0.23549343	          0.08547130	          0.10011230	          0.19610928	          0.06143367	          0.01000222	          0.05584312	          0.01219106	          0.01000449	          0.56219475	          0.18949974	          0.01000128	          0.01000155	          0.02156620	          0.18469079	          0.02739547	          0.05611420	          0.01884242	          0.38792950	          0.01000546	          0.01467351	          0.19503505	          0.16265084	          0.01000065	
